<svg width="240" height="60" viewBox="0 0 240 60" fill="none" xmlns="http://www.w3.org/2000/svg">
  <defs>
    <style>
      @import url('https://fonts.googleapis.com/css2?family=Playfair+Display:ital,wght@1,700&amp;family=Inter:wght@800&amp;display=swap');
    </style>
  </defs>
  
  <path d="M25 42C25 28 42 15 57 25C67 31 64 41 54 41C44 41 40 31 50 25" stroke="#1e293b" stroke-width="2.5" stroke-linecap="round" />
  <path d="M21 26C15 28 11 24 15 20C19 16 21 20 21 26Z" fill="#ef4444" />
  <path d="M31 20C25 22 21 18 25 14C29 10 31 14 31 20Z" fill="#ef4444" />
  <path d="M57 25C64 17 72 19 74 27C72 35 64 33 57 25Z" fill="#10b981" />
  <path d="M57 25C62 23 67 24 74 27" stroke="#ffffff" stroke-width="1" />
  
  <text x="85" y="35" font-family="'Playfair Display', Georgia, serif" font-size="26" font-weight="bold" font-style="italic" fill="#1e293b">Prakriti</text>
  <text x="85" y="50" font-family="'Inter', sans-serif" font-size="10" font-weight="800" letter-spacing="3" fill="#64748b">TRACK</text>
  
  <circle cx="157" cy="20" r="2.5" fill="#ef4444" />
  <circle cx="184" cy="20" r="2.5" fill="#ef4444" />
</svg>
